<svg xmlns="http://www.w3.org/2000/svg" width="1000" height="1000" viewBox="0 -244 1000 1000">
  <defs>
    <style>
      path {
        fill: #000;
        fill-rule: evenodd;
      }
      @media (prefers-color-scheme: dark) {
        path {
          fill: #fff;
        }
      }
    </style>
  </defs>
  <path id="thedchu-logo" d="M51.323,0.279c12.759,2.652,27.454-1.292,40.686,0,36.114,3.527,80.53,18.737,113.127,30.737,81.04,29.835,195.152,171.049,156.79,286.552-5.6,16.87-6.182,33.886-14.885,47.593-37.578,59.183-73.691,83.125-146.866,104.11-30.827,8.841-64.729,29.766-101.219,22.805C77.061,487.9,14.1,485.8,4.683,470.263c-3.626-5.457-6.721-13.167-2.977-20.822l6.946-5.949c17.871-.966,21.729,6.687,34.732,10.906a268.487,268.487,0,0,0,59.54,11.9c24.117,2.124,83.392-6.032,103.2-13.882,13.283-5.262,25.53-18.765,36.716-26.771,39.654-28.377,74.912-48.267,94.273-97.17,12.119-30.613,17.256-78.359,4.961-113.034-5-14.112-20.612-25.007-28.778-36.686-31.237-44.679-58.309-76.741-105.188-106.094-10.736-6.723-19.494-19.928-32.747-23.8C161.8,44.9,92.052,43.1,82.085,46.881c-10.974,8.939-16.08,52.96-17.862,73.373-1.264,14.47,6.582,32.436,9.923,47.593l7.939,48.585c5.032,19.026,14.619,39.157,18.855,59.492,8.22,39.464-11.194,89.977-.993,119.974,2.4,7.055,11.513,10.241,15.878,15.865,0.4,8.965-.782,18.877-4.962,25.779L93.993,442.5c-6.841-3.056-9.4-5.779-13.893-10.907A760.351,760.351,0,0,0,67.2,298.729c-2.75-15.075,1.476-29.833,0-41.644A757.649,757.649,0,0,0,44.376,146.033c-4.521-15.775-15.419-80.706-22.824-87.254C5.314,62.321-4.394,32.18,5.675,17.135,16.076,1.592,33.96,7.533,51.323.279ZM546.5,51.838c19.512-.694,35.834.713,43.663,11.9,0.242,6.381-.156,12.125-1.984,15.865-3.96,1.832-3.267,2.042-4.962,5.949-27.212,1.728-53.167-2.123-76.41,9.915C446.414,126.745,386.689,275.6,403.6,361.2c2.333,11.806-1.363,24.26-2.977,32.72-4.659,24.435,2.34,51.016,11.908,66.433,8.484,13.669,34.843,14.007,53.587,17.847,39.233,8.039,83.032,7.567,124.042,3.966,18.284-1.605,34.872-11.607,49.617-6.94q1.49,6.444,2.977,12.889C601.171,517.524,463.6,518.548,416.5,498.026c-16.972-7.4-30.673-29.294-37.709-46.6-15.97-39.282-2.931-84.4,2.977-119.975,17.514-105.455,33.146-210.5,107.173-257.8C506.07,62.711,525.921,60.005,546.5,51.838Zm124.043,84.28c5.516,0.079,7.754.478,9.923,3.966,5.1,7.335-1.851,11.977,0,20.822,3.734,17.838,8.768,37.813,11.908,58.5q-1.488,16.359-2.977,32.721,1.489,27.761,2.977,55.525-0.5,19.829-.992,39.661l1.985-.991c11.263-33.412,64.128-39.043,83.356-9.915,23.723,35.935,22.525,67.669,17.863,115.017q2.48,9.914,4.961,19.83c2.511,13.991-3.334,21.837-5.954,30.738-7.09,2.708-9.239,2.061-16.87-.992-2.5-13.268,4.349-24.158,1.985-39.661-6.24-40.927-10.865-89.2-34.732-113.034l-8.931.992c-21.744,10.4-45.038,67.587-52.594,93.2-5.957,20.2-1.062,42.035-9.923,57.509l-11.908-.992-3.97-1.983c-10.123-37.05,8.725-93.268,12.9-130.882V266.008c-3.168-17.685-11.377-38.036-9.924-54.534C662.267,181.5,651.93,153.114,670.543,136.118ZM864.049,353.263c4.433,0.567,7.249.309,10.916,1.983,3.079,35.1-4.364,88.22,13.893,118.983l14.885,2.975c37.642-18.7,39.441-69.421,47.632-117.992l3.97-.992c4.786-1.342,8.506-.228,12.9.992,14.1,27.307,7.756,66.441,17.862,100.144,3.277,10.928,12.783,20.811,13.893,32.72-2.28,6.409-4.021,11.145-8.931,14.873-29.476-4.5-17.009-32.2-32.747-40.652-11.008,30.572-52.794,58.847-85.342,33.712-17.086-13.2-26.756-123.351-14.885-144.763Z"/>
  </svg>
